<svg viewBox="0 0 720 100" version="1.1" xmlns="http://www.w3.org/2000/svg" xmlns:xlink="http://www.w3.org/1999/xlink">
  <defs>
    <clipPath id="smokeRect">
      <rect x="0" y="30" width="16" height="15"/>
    </clipPath>
  </defs>
  <g id="bus" transform="translate(20 35) rotate(-3)">
    <g id="wagon">
    <animateTransform attributeType="XML" attributeName="transform" type="rotate" dur="1.2s" keyTimes="0; 0.5; 1" values="0 80 57;3 80 57; 0 80 58" repeatCount="indefinite" />
      <rect id="box" width="120" height="45" fill="#75AFAC" rx="4" ry="4" x="20" y="0" />
      <rect id="win1" width="15" height="12" fill="#fff" fill-opacity="0.7" x="32" y="10" />
      <rect id="win1" width="15" height="12" fill="#fff" fill-opacity="0.7" x="58" y="10" />
      <rect id="win1" width="15" height="12" fill="#fff" fill-opacity="0.7" x="84" y="10" />
      <rect id="win1" width="15" height="12" fill="#fff" fill-opacity="0.7" x="110" y="10" />
    </g>
    <g id="wheel1" style="transform-origin:0 60px">
      <animateTransform attributeType="XML" attributeName="transform" type="scale" dur="1.2s" begin="0.6s" keyTimes="0; 0.5; 1" values="1 1;1 0.9;1 1" repeatCount="indefinite" />
      <circle cx="47" cy="45" r="15" fill="#E0DFD4" />
      <circle cx="47" cy="45" r="11" fill="#E3EFEE" stroke="#46443B" stroke-width="4"  />
    </g>
    <g id="wheel2" style="transform-origin:0 58px">
      <animateTransform attributeType="XML" attributeName="transform" type="scale" dur="1.2s" keyTimes="0; 0.5; 1" values="1 1;1 0.9;1 1" repeatCount="indefinite" />
      <circle cx="112" cy="45" r="15" fill="#E0DFD4" />
      <circle cx="112" cy="45" r="11" fill="#E3EFEE" stroke="#46443B" stroke-width="4"  />
    </g>
    <g id="smokes" clip-path="url(#smokeRect)">
      <rect x="0" y="30" width="16" height="2" fill="#AEAB9E">
        <animate attributeType="XML" attributeName="x" from="16" to="-16" dur="1s" repeatCount="indefinite" />
      </rect>
      <rect x="0" y="35" width="16" height="2" fill="#AEAB9E">
        <animate attributeType="XML" attributeName="x" from="16" to="-16" dur="1s" begin="0.8s" repeatCount="indefinite"/>
      </rect>
      <rect x="0" y="40" width="16" height="2" fill="#AEAB9E">
        <animate attributeType="XML" attributeName="x" from="16" to="-16" dur="1s" begin="0.2s" repeatCount="indefinite" />
      </rect>
    </g>
  </g>
  <text x="284" y="70" transform="rotate(-2)" font-size="26" fill="#615E51">↑
    <animate attributeType="XML" attributeName="dy" dur="1s" keyTimes="0; 0.5; 1" values="0;-10;0" repeatCount="indefinite" />
  </text>
  <path fill="#615E51" d="M206 48.78c-.64.02-1.23.1-1.77.2.18 2.43.48 4.8.9 7.2.54-.03 1.1-.1 1.68-.23-.2-2.33-.5-4.74-.8-7.17zm3.47-3.1l-.78.04c-.3 0-.6.07-.9.13.2 4.23.6 8.5 1.3 12.83.1.05.4.04.7.03.3 0 .5 0 .7-.1-.1-2.3-.3-4.6-.6-7.1.8.2 1.6.3 2.5.2.1-.5.1-1.1.1-1.5-1-.2-1.9-.3-2.8-.3-.2-1.3-.4-2.6-.5-4zm8.34 1.8c-1.2.07-2.5.14-3.9.24 0 .52.1 1 .2 1.43 1 .02 2.1.03 3.4 0-.4 1.77-.9 3.45-1.2 5.02-1.3.07-2.5.15-3.8.2-.1.25-.1.5-.1.77 0 .3.1.55.1.75.3 0 1.5 0 3.5-.1-.3 1.7-.6 3.3-.9 4.9.5.2 1 .4 1.6.5l1.4-5.5 4.6-.2c2.2-.1 3.4-.2 3.6-.3.1-.1.1-.4.1-.7 0-.4 0-.6-.1-.8-.9-.1-2.1-.2-3.6-.1l-4 .1 1.2-5 2.9-.1c.2 1.2.4 2.6.7 4.2.7 0 1.2-.1 1.7-.3-.2-2.3-.4-4.2-.6-5.6-1.5-.1-2.9-.1-4.2 0l.8-3.4c-.5-.3-1.1-.5-1.7-.5-.4 1.3-.8 2.6-1.1 3.9zm2.6 9.7c-.4.42-.6.93-.8 1.5 1.3.87 2.7 1.48 4.1 1.82.2-.22.3-.46.5-.72.2-.24.3-.48.4-.74-1.3-.68-2.7-1.3-4-1.87zm20.5-13.9c-.3 0-.5.1-.8.2-.1 2.66 0 5.26 0 7.78.1 2.3.2 4.5.4 6.67-1.9.02-3.8.06-5.7.12v.78s0 .55.1.86c4.7.1 9.4.1 14.1-.1.1-.3.1-.6.1-.9V58c-2.3-.06-4.5-.1-6.8-.1.1-2.2 0-4.5 0-6.9v-1.8c1.1 0 3.2-.05 6.3-.15 2.4-.1 3.7-.2 4-.3.1-.1.1-.38.1-.8 0-.36 0-.6-.1-.77-1-.1-2.3-.15-4-.1l-6.2.3-.2-4.04c-.3-.1-.6-.15-.9-.14zm22.4.33c-.1.4-.1.6-.1.9 0 .5.1.8.2.9.8.1 1.7 0 2.7 0-.6 3.2-.9 5.2-.9 5.8 2.3.4 4.5.6 6.8.8 0 .9 0 1.8.1 2.7-2.9.2-5.6.5-8.2.7.1.6.1 1.2.2 1.7 2.8-.1 5.5-.3 8.1-.5.1 1.7.2 3.4.5 5h1.7v-5.1c2-.1 4-.3 6.1-.5.1-.2.1-.5.1-.9 0-.3-.1-.6-.1-.8-2 .2-4 .3-6 .4 0-.8 0-1.6-.1-2.4 1.4.1 2.7.1 4.1.1.1-.5.2-1 .2-1.6l-4.3-.2c0-.9-.1-1.9-.2-2.9-.3-.1-.6-.2-.9-.1-.3 0-.5.1-.8.2v2.8l-4.63-.2c.3-1.5.68-3 .9-4.6 2.9 0 6.2-.1 10.1-.3.04-.2.1-.5.06-.9v-.8c-3.3 0-6.5.1-9.8.2l.4-2.6-1.66-.3c-.3.9-.57 1.9-.8 3-1.04 0-2.1 0-3.14.1zm188.2-6.7c-1 .1-2 .1-3 .2l.3-2.6c-.6-.1-1.2-.1-1.7-.2-.1 1-.3 2-.4 3-1 .1-2.1.1-3.1.1v-2.8c-.1 0-.4-.1-.8-.1-.3 0-.6.1-.9.1-.1.9-.1 1.9-.1 2.8-.9.1-1.7.1-2.5.1v-2.2l-.7-.1c-.3 0-.6.1-.8.1-.1.8-.1 1.6-.2 2.4-.9 0-1.9.1-2.7.1 0 .6.1 1.2.1 1.7h2.5c0 .9-.1 1.8-.1 2.7.3.1.5.1.9.1h.8c.1-.9.2-1.8.2-2.7.9 0 1.7 0 2.6-.1-.1.7-.1 1.6-.1 2.4.2.1.6.1.9.1.5 0 .8-.1.9-.1 0-.8.1-1.6.1-2.5l3-.1-.3 2.6c.4.3 1 .4 1.8.4.2-1 .3-2 .4-3l3.4-.1c.1-.2.1-.5.1-.9 0-.3-.1-.6-.2-.8zm-16.1 5.4c-.6.1-1.2.1-1.7.3.1 2.1.3 4.2.5 6.2.6 0 1.2-.1 1.7-.2-.1-2-.2-4-.4-6.1zm3 5.5c-.3.1-.6.2-.7.3.1 1.9.3 3.8.7 5.7.2.1.4.1.8.1.3 0 .6-.1.8-.2 0-1.3-.1-2.6-.3-3.9.6 0 1.7 0 3.2-.1.1 2.1.4 4.1.7 6.2h.7c.4 0 .6 0 .8-.1-.1-2-.2-4-.4-6h2.9l.3 2.7c-.4.2-.8.2-1.4.2.1.4.1.7.2 1.1.4.1.8.2 1.4.1.6 0 1.1 0 1.5-.1.1-.8.1-2 .1-3.5 0-.5-.1-1.1-.2-1.9 0-.1-1.6-.1-4.7-.1l-.2-1.6h-.8c-.4.1-.6.1-.9.1 0 .5 0 1.1.1 1.6-1.5.1-2.6.2-3.3.3v-.2c-.2-.1-.4-.1-.8-.1zm5-5.1l-6.6.5v.8c0 .4.1.7.2.9l6.5-.3c2.3 0 4.6-.1 6.8-.1l.1 2.4h.9c.4 0 .7 0 .9-.1.1-.4.1-1.1.1-2.1 0-.4-.1-1.1-.2-1.9-2.6 0-5.4.1-8.5.1zm23.4-3.2c-2.2.7-4.2 1.7-5.9 2.8.2.6.4 1.1.8 1.4.6-.1 1.2-.3 1.8-.6.3 2.2.7 4.3 1.2 6.3.6 0 1.1-.1 1.6-.3-.3-2.3-.6-4.5-1.1-6.7.8-.4 1.5-.8 2.2-1.3-.1-.5-.3-.9-.6-1.3zm4.5-4.2c-.9 2.3-1.8 4.7-2.7 7.3.4.4 1 .5 1.7.6.5-.9 1-2.2 1.7-4 2.3.2 4.7.3 7.1.2l.1 3c.2.2.5.2.8.2.3 0 .6 0 .8-.1.1-1.3.2-2.9.1-4.6-2.8-.1-5.6-.1-8.3-.1.2-.5.4-1.1.6-1.7-.5-.2-1-.4-1.6-.5zm4.3 7c-.5 0-1.1.1-1.6.3.2 2.7.4 5.5.7 8.2-.5.1-1 .2-1.4.3.1.4.1.8.3 1.1.5.1 1 .1 1.5.1.7 0 1.2-.1 1.8-.3-.1-1.8-.4-5-1.1-9.5zm-5.2 3.9c-.5 1.3-1 2.7-1.5 4.2.5.4 1 .6 1.7.7.7-1.4 1.3-2.9 1.6-4.4-.6-.2-1.2-.3-1.7-.5zm9.5 0c-.6.2-1.1.3-1.5.5.1 1.3.5 2.3 1.1 3.1.5 0 1-.2 1.5-.5-.3-1.3-.6-2.3-1.1-2.9zm12.6-13.3c-1.5 2.1-3.2 4.6-5.1 7.6.4.4.8.7 1.4.9.5-.5.9-1.1 1.5-1.9l1.6-2.2.7-.9c1.7 1.3 3.4 2.3 5.1 3.3.4-.4.7-.9.9-1.4-1.5-1.2-3.2-2.3-4.9-3.3l.7-1c-.5-.3-1-.6-1.6-.8zM489.7 44c-.08.3-.1.5-.1.78s0 .53.05.8c1.36.1 3.08.2 5.2.25-.46 1.2-.9 2.4-1.32 3.57-.6-.3-1.3-.56-2-.85-.2.4-.4.87-.6 1.45 1.6.9 3.4 1.72 5.3 2.54.4-.43.6-.9.66-1.5-.6-.3-1.2-.62-1.8-.9 1.2-2.4 1.8-4.4 1.9-5.96-1.2-.17-3.7-.2-7.4-.1zm2.7-4.7c-.3.4-.56.8-.7 1.2.7.7 1.5 1.3 2.4 1.8.33-.3.6-.7.8-1.2-.8-.7-1.67-1.3-2.55-1.74zm6.1-5.8c-.1.5-.1.9-.1 1.4 1.2.2 2.5.3 3.7.4-.26.75-.44 1.6-.56 2.5.4.28.94.4 1.6.37.2-.54.43-1.45.7-2.74 1.54.1 3.1.1 4.7 0 .1-.4.1-.83.1-1.3-3.4-.4-6.8-.6-10.2-.6zm.62 5.7c-.14 2.86-.2 5.6-.1 8.2.6.1 1.14.1 1.68.08.2-2.6.2-5.3.1-8.2-.5-.1-1.1-.1-1.6-.1zm3.05-.53c-.1.22-.1.46-.1.7 0 .33.06.6.15.8 1.7.14 3.4.24 5.2.23l.2 6.33c.2.16.43.2.8.2.23 0 .5-.06.72-.14.08-2.3.06-5-.04-8-2.4-.2-4.7-.2-6.9-.2zm2 3.64c-1.4 3.3-2.7 6.7-3.83 10.3.4.4.9.6 1.44.6.5-1.2.93-2.3 1.4-3.5 1.7 1.1 3.27 1.8 4.7 2.3.3-.4.5-.9.6-1.3-1.45-1-3-1.9-4.65-2.5.66-1.7 1.3-3.5 1.86-5.2-.5-.2-1-.4-1.6-.5zm15-6.3c-.07.3-.1.5-.07.9v.8c1.35.3 2.8.5 4.3.4l.3 6.6c-1.7.1-3.6.1-5.7 0v-2.9c.5.1 1.08.1 1.6.1v1.8c.56.1 1.08.1 1.6.1 0-.5.1-1.1.1-1.8.4.1.88 0 1.3 0 .1-.5.17-1 .1-1.5-.4 0-.9 0-1.4-.1v-1.6c-.5 0-1-.1-1.5 0-.04.5-.1 1-.1 1.5H518l-.05-3c-.7-.1-1.3-.1-1.8-.1-.1 2.2-.1 3.8-.1 4.7.1 2.4.18 3.8.27 4.3.75.3 1.7.4 2.84.4 3.28-.1 5.4-.3 6.45-.4.1-.7.1-2.2 0-4.6 0-1.9-.2-3.6-.3-5.2-2.1-.2-4.1-.22-6-.3zm11.14-4c-1.8 2-3.4 4.1-4.7 6.2.4.4.7.7 1.2 1 .5-.5.9-1 1.3-1.6l1.3-1.5.2-.2 4.3.4c-.8 1.1-1.7 2.1-2.6 3.1-.8-.4-1.7-.7-2.6-1.1l-.9 1.2 2.2 1.2c-1.2 1.3-2.6 2.5-4.1 3.7.4.5.7.9 1.2 1.3 1.7-1.3 3.3-2.7 4.6-4.1 1.8.9 3.6 1.7 5.4 2.4.3-.4.6-.8.7-1.2-1.5-.8-3.1-1.6-4.8-2.4.8-.8 1.5-1.6 2.1-2.4.9-1 1.5-2 1.8-2.7-2.2-.2-4.2-.4-6.2-.6.3-.4.6-.8.9-1.4-.3-.3-.8-.6-1.2-.8zm.5 12.7V46c1.1.06 2.4.1 3.8.07 0 1.5 0 2.8.1 4l-5.1.1-.2-5c-.2-.03-.5-.1-.8-.1-.3 0-.5.1-.8.16v4c.1 1.08.2 1.8.3 2.2.8.1 1.8.2 3 .16 2.7-.1 4.5-.2 5.4-.3.1-1.6.1-3.2.1-4.8 0-.4-.1-1-.1-1.7-1.6-.1-3.4-.1-5.3-.1zm28.2-4.6c-.5 0-1.1.1-1.6.2.1 2 .4 3.8.9 5.3.8 0 1.3-.1 1.6-.3-.1-1.5-.3-3.2-.7-5.1zm3.8-2.2c-.7.1-1.3.2-1.7.3l1.2 9.6c-.7.1-1.3.1-1.9.2 0 .5.1 1 .2 1.4 1.9 0 3.1-.2 3.7-.5-.2-3.6-.7-7.3-1.6-11zm-13.8.6c-.1.2-.1.5-.1.8 0 .2 0 .5.1.7 1.1.1 2.2.2 3.3.2 0 2.6.1 5.3.2 8.2h-2c-.1.4-.1.8 0 1.2.4.3 1.6.4 3.8.3.1-2.9.1-6.7-.1-11.3-1.9-.1-3.6-.2-5.3-.1zm-1.3 5.3c.8.1 1.8.1 3.1.1.1-.4.2-.8.2-1.4-1.2-.1-2.3-.1-3.3-.1l.1-3-1.7-.1c-.3 3.4-.5 6.8-.7 10.4l1.8.2.3-3.1c.9.1 2.1.2 3.5.2.2-.5.2-.9.2-1.5-1.3-.2-2.5-.4-3.5-.4 0-.3 0-.7.1-1.1zm-1.5-9.1c-.2.3-.3.6-.3.9 0 .4 0 .7.1.9 6 .1 11.8.1 17.6-.1 0-.2.1-.5.1-.9v-.8H559c.5-.9.87-2 1.08-3.3-.58-.2-1.13-.4-1.66-.5-.7 1.3-1.2 2.6-1.43 3.9-3.7.1-7.4.1-11 .1zm4.7-3.7c-.6.2-1.1.3-1.5.5.1 1.2.6 2.1 1.3 2.8.5 0 1-.2 1.5-.5-.3-1.2-.8-2.1-1.4-2.7zm25.3 3.5c-.4 0-.7.1-1 .1-.2.7-.2 1.7-.2 2.9h-3v.8l.1.9c2.7.4 5.4.5 8.2.4.1-.6.1-1.1.1-1.7l-3.3-.2c.1-1 .1-2 .1-2.9-.3-.1-.6-.1-.9-.1zm-1.9 6.1c-.6.1-1.1.3-1.5.5.1 1.5.5 2.7 1.1 3.7.5-.1 1-.3 1.5-.6-.3-1.5-.6-2.7-1.1-3.5zm3.5.1c-.6 1.5-1 3.3-1.3 5.2-1.5.2-2.9.5-4.3.7.1.6.2 1.2.3 1.6 2.9-.2 5.6-.6 8.1-1.1-.1-.5-.1-1.1-.3-1.6l-1.9.3c.3-1 .7-2.5 1.1-4.4-.5-.2-1-.4-1.7-.4zm9-9.9c-.3 0-.5.1-.7.2-.2.9-.2 1.7-.2 2.6 0 .4 0 .8.1 1.1-1.2 0-2.4 0-3.6-.1v-2.1c-.5 0-1-.1-1.6 0-.1.7-.1 1.3-.1 2l.1 1.8c1.1.2 2.6.3 4.6.3.8.1 2.5.1 5.2 0 0-.5.1-1 .1-1.6h-2.8v-1.2c0-.7-.1-1.5-.2-2.6-.2 0-.4-.1-.7 0zm5.7.6c-.5.1-1.1.2-1.7.2.1 1.5.3 2.9.6 4.3.6 0 1.2-.1 1.6-.2-.1-1.3-.3-2.7-.6-4.2zm-10.1 10.1c-.3 0-.5.1-.8.1-.2.9-.2 1.8-.2 2.7.1 2.1.2 3.8.5 5.3.2.1.4.2.8.1.3 0 .6 0 .7-.2 0-1.2.1-3 0-5.3 0-.2-.1-.5-.1-.9 2.7 0 5.5 0 8.3-.1l.3 5.2c-.6.1-1.1.2-1.6.3 0 .4.1.8.3 1.3 1.8 0 2.7-.2 2.9-.4.1-.5.1-1.2.1-2.2-.1-1.7-.3-3.6-.5-5.6-2.4 0-4.7 0-6.9.1l1.3-2c1.7-.1 3.4-.3 5.1-.6v-1c0-.2 0-.5-.1-.7-4 .2-7.8.5-11.3 1 0 .6.1 1.1.2 1.6 1.3 0 2.6-.1 4-.2-.5.7-.8 1.3-1.1 2H583l-.02-.3c-.2-.1-.5-.1-.78-.1zm6.9 2.5l-.7.1c-.3 1-.5 2.4-.4 4.2.2.1.4.2.8.1.3 0 .6 0 .8-.1.3-1.5.4-2.9.4-4.1-.2-.1-.5-.1-.7-.1zm-3.2 0c-.3 0-.5.1-.7.1-.3 1-.4 2.4-.4 4.3.2.1.4.2.8.2.3 0 .5 0 .7-.1.2-1.6.4-3 .3-4.2-.2 0-.5-.1-.7-.1zm18.5-11.1h-.8c-.2 0-.5.1-.7.1.1 1.7.2 3.4.4 5.2h-2.9c-.1.5-.1 1-.1 1.6 1.1.1 2.1.1 3.2.2 0 .2 0 .3.1.5-1.1 1.1-2.1 2.2-3.1 3.4.3.4.7.8 1.1 1.1.4-.3.8-.7 1.2-1.1l1-1 .1-.1c.1.9.2 1.8.4 2.6.2.1.4.1.7.1.3 0 .6 0 .8-.1l-.1-2.5c.6.3 1.2.5 2 .7.3-.43.5-.9.6-1.3-1-.44-1.9-.82-2.8-1.2l-.1-.84c.8 0 1.8 0 2.7-.05.1-.56.1-1.06.1-1.47l-3.1-.1c-.2-1.8-.4-3.54-.7-5.4zm-4.4 1.5c-.2.4-.5.8-.7 1.2.8.7 1.8 1.4 2.8 1.8.4-.3.7-.7.8-1.2-.9-.8-1.9-1.4-2.8-1.8zm6.9-.5c-.6 1.1-.9 2.3-1.1 3.5.6.2 1 .3 1.3.3.6-.9 1-2 1.2-3.4-.4-.1-.9-.3-1.3-.4zm14.1 3l-4.9.3v-1.6c2.2-.1 3.5-.2 3.9-.3v-.7c0-.2 0-.4-.1-.6h-3.8v-1.3c2-.2 3.4-.3 4.3-.5.1-.2.1-.4.1-.7 0-.2 0-.5-.1-.7l-4.3.3-.1-1.6c-.2 0-.5-.1-.8 0-.3 0-.6.1-.9.1V31c-1.3.1-2.5.24-3.8.4 0 .7.1 1.23.4 1.6l3.3-.27V34c-1.5.03-2.7.1-3.8.13-.1.2-.1.44 0 .7 0 .3 0 .56.1.76.8.1 2.1.1 3.9.1 0 .5.1 1.1.2 1.6-1.7.1-3.3.3-4.86.6 0 .5.1 1 .2 1.5 3.8-.2 7.6-.6 11.4-1.2v-.7c0-.3-.04-.5-.1-.7zm-7.6 5.8h-.7c0-.6 0-1.2.1-1.9-.1 0-.4-.1-.7-.1l-.9.1c-.4 2.6-.6 5.4-.7 8.3.2.1.6.2.9.2.5 0 .7-.1.9-.1l.3-2.3c.2.1.5 0 .9 0 1.8 0 3.1-.1 4-.3 0-.2.1-.4 0-.7 0-.2 0-.4-.1-.7-.9.1-2.2.2-3.8.2-.2 0-.5.1-.7.1.1-.3.1-.7.1-1h.8c1.8 0 3.1-.1 3.8-.2 0-.2.1-.4.1-.6 0-.3 0-.5-.1-.7-.9-.04-2.1-.1-3.7 0zm.3-2.7c-.1.5-.1 1-.1 1.5 0 .1 1.6.2 4.8.2.1 2.1.4 4.2.7 6.5-.8.1-1.4.2-1.9.4 0 .5.1.9.4 1.3 1.3-.15 2.4-.34 3.4-.6-.1-3-.4-6-.7-9.04-2.6-.03-4.9-.03-6.7 0zM638 29c-3.4.6-6.7 1.3-9.87 2.1.04.7.16 1.2.4 1.6 3.27-.3 6.5-1 9.74-2.1-.06-.5-.1-1-.3-1.5zm.5 3.9c-.5 1-1 1.9-1.3 2.9.47.3 1 .5 1.6.7.57-1 .98-2 1.25-2.92-.44-.3-.97-.5-1.57-.6zm-4.6 0c-.4.9-.7 1.8-1 2.7.45.3.98.5 1.58.7.37-.92.7-1.84.9-2.8-.4-.2-.9-.4-1.5-.53zm-3.7.8c-.5.1-1 .3-1.36.4.13 1.2.5 2.1 1.05 2.9.5-.1.9-.2 1.4-.5-.3-1.3-.6-2.2-1.1-2.8zm-.4 5.5c-.02.3 0 .5 0 .8s.04.54.13.9h3.6c0 .4.08.9.1 1.4-1.5.8-2.9 1.8-4.2 2.7.2.57.5 1 .9 1.4 1.1-.6 2.24-1.26 3.46-2.03 0 .9.1 2 .2 3h.9c.4 0 .7-.1.9-.1l-.2-2.9c.7.3 1.6.5 2.6.6.2-.6.35-1.1.4-1.5-1-.4-2-.8-3.04-1-.1-.6-.1-1.1-.14-1.7.93 0 1.86-.1 2.85-.1.1-.3.12-.6.1-.9l-.05-.8h-3.1l-.3-2.1c-.2 0-.5-.1-.87-.1-.5.1-.8.17-.9.25l.1 1.9c-1.2 0-2.4.1-3.6.1zm17.7-3c-1.7.2-3.33.6-5 1.2 0 .6.1 1.08.37 1.5 1.6-.22 3.3-.6 5.1-1.04-.1-.6-.2-1.12-.4-1.6zm-1.1-5.9c-2.2.7-4.2 1.5-5.9 2.56.18.54.4.95.77 1.25 2.2-.6 4.1-1.4 5.7-2.5-.1-.5-.27-.9-.6-1.3zm1.86 11.5c-2.24.4-4.25 1-6.04 1.7.1.57.2 1 .4 1.5 2.2-.3 4.2-.8 6.1-1.6 0-.4-.2-.9-.4-1.4zm20.2-12.9l-.05-1.2c-.4-.1-.8-.13-1.1-.12-.2 0-.4.04-.7.05-.5 2.9-.7 6.2-.5 9.8 0 .25 0 .6.1 1.16h1.5c.3-.8.5-2.3.6-4.6.2-2 .2-3.7.2-5.1zm.4 13.3c-1.1-.6-2-1-2.76-1-.6 1.17-1 2.07-1.1 2.7.8.6 1.7.9 2.8 1.17.2-.2.4-.7.7-1.4.2-.7.3-1.2.3-1.4z"/>
  <path fill="#649F0C" d="M323.58 48.26c-.05.2-.04.44-.03.73 0 .2.04.5.13.7.9.1 2.37.1 4.45 0 7.33-.3 11.46-.5 12.4-.7l-.04-.8-.1-.7c-2.4 0-6.5.1-12.3.3-1.9 0-3.4.1-4.6.2zm-.2-7.5c-.03.28-.02.5 0 .74l.02.86c1.14.07 2.3.08 3.5.1l-.04.04c-1.66 2.4-2.6 3.8-2.82 4.26.38.3.86.54 1.5.7.42-.22 1.57-1.66 3.42-4.38l.42-.62c2.92.03 5.86-.02 8.82-.12.08-.58.12-1.1.1-1.62-2.7-.06-5.26-.07-7.65-.07.64-.96.98-1.6 1.05-1.86-.5-.3-1.05-.4-1.63-.6-.35.4-.95 1.2-1.84 2.4l-4.84.1zm9.17 2.95c-.27.4-.52.8-.76 1.3 1.1.9 2.5 1.7 4 2.3.3-.3.6-.7.9-1.2-1.4-1-2.8-1.7-4.2-2.3zm4.82 6.8l-1.64.3c.16 2.1.36 4.2.64 6.4-.83.1-1.5.1-2.02.3.02.4.1.8.28 1.2.57.1 1.25.1 2.03.1.65 0 1.22-.1 1.73-.3-.1-1.5-.4-4.1-1.1-7.7zm-6.77.9c-2.93.2-5.55.5-7.88.8.27 2.5.6 4.3 1 5.7 3.13-.1 5.62-.3 7.45-.7-.06-1.7-.26-3.7-.57-5.8zm-5.85 2.1l4.2-.3.3 2.8-4.2.4-.3-2.7zm28.33-17.1c-1 1.6-1.94 3.4-2.92 5.3.43.4.96.6 1.57.8.27-.3.47-.6.56-.8l.4-.7c0-.1.1-.2.2-.4 3.8.3 7.8.3 11.8.2.1-.5.1-1.1.1-1.7-3.6-.3-7.3-.3-11-.3l.9-1.7c-.5-.3-1-.4-1.7-.5zm15.02 6.3c-.76.1-1.5.1-2.3.2.05-.3.1-.6.1-.7-.5-.1-1-.1-1.53-.1l-.3 1c-.67.1-1.35.1-2.02.1.03-.4.07-.8.06-1-.5-.1-1.1-.2-1.6-.1-.1.4-.1.9-.2 1.3-.8.1-1.6.1-2.4.2l-.2-1.1h-.8c-.2 0-.5.1-.8.2 0 .4.1.7.1 1.1-.7.1-1.4.1-2.1.2l-.3-1.1c-.6.1-1.2.2-1.7.3 0 .3.1.6.1.9l-3 .3c0 .6.1 1.1.2 1.6 1.1 0 2.1-.1 3.2-.2.1.5.2 1.1.4 1.7-.6 0-1.2.05-1.7.1v.7c0 .38.1.66.1.87 1 .1 2.6.1 4.8 0 6.4-.2 10-.4 10.8-.6v-.8c0-.3 0-.6-.1-.8h-1.6l.5-1.8c0-.1 0-.2.1-.3.9-.05 1.8-.1 2.7-.2.1-.15.1-.46.1-.9 0-.3-.1-.6-.1-.8zM354.6 47c-.06-.52-.16-1.1-.28-1.65l1.92-.1c.07.56.17 1.13.3 1.7l-1.93.06zm3.6-.12l-.17-1.74c.62 0 1.27-.06 1.95-.1-.08.67-.14 1.27-.15 1.8l-1.63.08zm3.4-.1l.25-1.8v-.1c.57 0 1.17-.04 1.76-.1-.1.75-.2 1.4-.2 1.97-.5 0-1.1.06-1.7.06zm-8.66 2.4c-1.3 1.8-2.26 3.6-2.9 5.3.32.4.77.64 1.35.7.7-.94 1.3-1.92 1.9-2.9.7.25 1.6.5 2.5.7-.4.9-.7 1.8-.9 2.77-.7-.37-1.4-.7-2.2-.94-.3.3-.5.7-.8 1.2.7.5 1.5.9 2.4 1.3l-.3.9c.3.2.8.4 1.4.4.4-.4.8-1.5 1.4-3.2.4-1.1.7-2.3 1.1-3.5-1.3-.4-2.7-.7-4.1-1 .1-.2.3-.5.4-.8-.4-.4-.9-.7-1.6-.8zm15.26 1c-.47 0-.96.05-1.48.07l.03-1.16c-.15-.1-.4-.1-.8-.1-.32 0-.63 0-.94.1l-.1 1.3c-1.5.1-3.1.2-4.7.4.1.6.2 1.2.5 1.5 1.6-.1 3-.3 4.2-.4 0 .6-.1 1.3-.1 2-.6 0-1.2 0-1.7-.1v-1.2c-.5 0-1-.1-1.5-.1-.1 1-.1 1.8-.1 2.4 0 .2.1.2.2.2.8.1 1.8.1 3.1.2 0 .6-.1 1.4-.1 2.1.3.1.6.1.9.1.5-.1.8-.1.9-.2.1-.7.2-1.4.2-2.2h.3c1.2-.1 2-.1 2.3-.2.1-.3.1-.8 0-1.4H367l.1-2.3 1.6-.3c.1-.2.1-.4.1-.7 0-.2-.1-.5-.1-.7zm10.03-8.35c-.5.07-.77.1-.85.2.13 3.84.36 7.97.7 12.4.13.1.4.07.88.05.36 0 .65-.04.85-.1-.1-4.5-.4-8.65-.7-12.4-.2-.08-.4-.1-.8-.1zm9.2-4.04c-3.1.2-5.45.5-7.05.8-.07.2-.1.4-.08.6 0 .3.08.6.2.9 4.7-.4 9.17-.7 13.38-.9.44 5 .77 10 .94 14.9l-2.02.2c0 .4.05.8.15 1.2h1.77c.78 0 1.35-.1 1.76-.2-.04-2.6-.08-5.3-.18-8.1-.12-3.4-.42-6.7-.84-9.8-2 0-4.68.1-8.03.2zm-4.83 4.8c-.03.4 0 .9 0 1.5.92.1 1.88.2 2.93.2 0 .5 0 1 .03 1.6l-3.85.3c0 .2-.1.4-.1.7l.1.7c.4.1 2.3 0 5.9-.1 2.2-.1 3.4-.2 3.6-.3.1-.1.1-.3.1-.7 0-.3 0-.6-.1-.7-.9-.1-2.1-.1-3.6 0h-.1l.1-1.6h2.1c.1-.5.2-1 .1-1.5-.7-.1-1.4-.1-2.2-.1v-1.1c-.3-.1-.6-.2-.9-.2-.3 0-.7 0-.9.1v1.1h-2.9zm4.47 6.6c-1.4 0-2.57.1-3.55.2-.05.7-.06 1.4-.04 1.9.03.8.08 1.6.2 2.3 1.06.1 2.33.1 3.8.1 1.3-.1 2.27-.1 2.9-.3.07-.7.1-1.3.08-2-.03-.9-.1-1.6-.2-2.4h-3.2zm-1.82 1.4l3.3-.1.06 1.7-3.3.1v-1.7zm33.6-7.8c-.62 0-1.22.1-1.76.2.1 2.2.4 4.4.9 6.5.5 0 1.1-.1 1.6-.2-.3-2.1-.5-4.3-.9-6.5zm4.73-2.6c-.65.1-1.22.2-1.74.3.5 3.7 1 7.2 1.5 10.6l-1.37.3c.07.4.16.8.3 1.1 1-.1 1.97-.3 2.9-.6-.36-4.2-.9-8.1-1.6-11.9zm-9.42-1.5c-3.35.2-6.5.4-9.5.7.02.5.1 1.1.24 1.6 3.02-.1 6.16-.3 9.45-.7-.02-.6-.1-1.2-.2-1.8zm-4.34 3.2c-.26 0-.54.1-.85.2-.05 1.6-.05 3.1-.02 4.7l-4.52.2c-.04.2-.03.5-.02.8.1.3.1.6.2.8.9.1 2.4.1 4.4 0l.1 1.2c.1 1.8.2 3.5.4 5.2h.9c.4 0 .7-.1.9-.1.1-1.8.1-3.6 0-5.4v-1.1c2.6-.1 4-.2 4.4-.4v-1.5h-4.4l-.2-4.7c-.3-.1-.6-.1-.9-.1z"/>
  <path id="road" d="M 720 100L 0 100L 0 95C 386 70 720 70 720 70L 720 100Z" fill="#AEAB9E"/>
</svg>
